PathFileType	4	(X/Y/Z)	 s05c0102.trc
DataRate	CameraRate	NumFrames	NumMarkers	Units	OrigDataRate	OrigDataStartFrame	OrigNumFrames
200	200	4	50	mm	200	501	2000
Frame#	Time	racr			lacr			c7			jug			rlel			rdr			llel			ldr			s2			lic			ric			lasi			rasi			rpsi			lpsi			rgt			lgt			rth1			rth2			rth3			rth4			rlfc			rmfc			rsh1			rsh2			rsh3			rsh4			rlmal			rmmal			rcal			rtoe			rmt5			lth1			lth2			lth4			lth3			llfc			lmfc			lsh1			lsh2			lsh3			lsh4			llmal			lmmal			lcal			ltoe			lmt5			SBIKE			LBIKE			RBIKE			
		X1	Y1	Z1	X2	Y2	Z2	X3	Y3	Z3	X4	Y4	Z4	X5	Y5	Z5	X6	Y6	Z6	X7	Y7	Z7	X8	Y8	Z8	X9	Y9	Z9	X10	Y10	Z10	X11	Y11	Z11	X12	Y12	Z12	X13	Y13	Z13	X14	Y14	Z14	X15	Y15	Z15	X16	Y16	Z16	X17	Y17	Z17	X18	Y18	Z18	X19	Y19	Z19	X20	Y20	Z20	X21	Y21	Z21	X22	Y22	Z22	X23	Y23	Z23	X24	Y24	Z24	X25	Y25	Z25	X26	Y26	Z26	X27	Y27	Z27	X28	Y28	Z28	X29	Y29	Z29	X30	Y30	Z30	X31	Y31	Z31	X32	Y32	Z32	X33	Y33	Z33	X34	Y34	Z34	X35	Y35	Z35	X36	Y36	Z36	X37	Y37	Z37	X38	Y38	Z38	X39	Y39	Z39	X40	Y40	Z40	X41	Y41	Z41	X42	Y42	Z42	X43	Y43	Z43	X44	Y44	Z44	X45	Y45	Z45	X46	Y46	Z46	X47	Y47	Z47	X48	Y48	Z48	X49	Y49	Z49	X50	Y50	Z50	
501	2.5050	414.172409	1357.810657	-130.028398	426.279452	1378.457906	-400.404749	392.524729	1442.989509	-268.245149	375.576153	1286.684494	-271.153521	529.250302	1125.234898	-53.717425	700.884866	916.450244	-86.953272	526.342059	1129.129979	-487.257170	763.640075	1034.039609	-451.754089	-139.565567	1169.513292	-263.620114	13.349856	1175.876928	-406.107771	19.565118	1194.733944	-127.765222	58.060503	1121.860127	-372.080310	51.492303	1130.133025	-153.128087	-101.623640	1216.752646	-222.987943	-99.555538	1216.851716	-309.840336	-36.861102	1069.975344	-88.165414	-66.335341	1072.582126	-434.343754	63.593081	1009.016769	-72.500166	151.324107	992.324907	-64.590266	216.820811	933.454673	-66.840501	167.225320	1024.200883	-75.775383	348.926091	855.794577	-90.912895	340.379763	853.619175	-202.107653	293.012268	758.571490	-71.649032	293.958285	670.353894	-84.857606	253.657875	595.011302	-92.945263	325.031005	666.567817	-108.137535	227.539399	463.912454	-108.936046	238.400542	498.511366	-185.315594	160.554185	426.644058	-157.285222	455.697927	426.953875	-145.149664	355.428514	395.059593	-82.593124	17.996918	957.799285	-458.294578	91.270584	912.660777	-460.994886	118.888091	935.374656	-449.223574	132.640009	832.162078	-464.148254	213.593800	706.871723	-436.152930	206.103470	697.611277	-327.117376	125.292752	616.217979	-457.480225	91.609833	536.180857	-444.407310	20.645846	482.924578	-442.234995	117.284537	520.007895	-420.811359	-48.873269	381.320365	-431.729734	-14.965677	402.582615	-355.878920	-120.303687	358.987097	-387.704964	155.621612	257.507963	-396.018323	44.835631	264.021945	-458.119926	-215.739740	913.740564	-268.530809	-43.676185	84.932592	-475.070952	-51.891042	80.089045	-77.507904	
502	2.5100	414.187157	1357.802307	-130.029479	426.262967	1378.469184	-400.408334	392.528043	1442.977058	-268.228559	375.592990	1286.681189	-271.143912	529.245011	1125.221824	-53.698738	700.876560	916.465400	-86.962209	526.336262	1129.127462	-487.283403	763.664651	1034.041081	-451.707373	-139.544881	1169.504526	-263.650979	13.368902	1175.871262	-406.119827	19.561910	1194.746566	-127.765177	58.070113	1121.861105	-372.091293	51.501556	1130.152910	-153.128806	-101.603864	1216.711026	-222.988261	-99.583669	1216.721121	-309.722250	-36.827980	1069.984193	-88.131940	-66.319970	1072.555204	-434.359394	63.605429	1009.040296	-72.490639	151.364967	992.365214	-64.599347	216.877507	933.546634	-66.834714	167.248058	1024.236698	-75.780615	348.971591	855.853780	-90.911986	340.419222	853.675317	-202.098022	292.988449	758.689283	-71.672532	293.951797	670.415869	-84.845854	253.619336	595.112088	-92.949391	325.015989	666.652349	-108.120784	227.497588	464.005128	-108.953173	238.351926	498.600299	-185.324774	160.508000	426.727290	-157.294462	455.641646	427.048100	-145.150347	355.370389	395.174872	-82.587939	17.993381	957.780991	-458.312942	91.282568	912.602026	-460.983363	118.893690	935.335330	-449.242076	132.631052	832.107555	-464.168418	213.548986	706.807750	-436.155798	206.057406	697.525486	-327.146656	125.250638	616.135231	-457.494003	91.577718	536.104245	-444.400657	20.639502	482.809185	-442.229256	117.266956	519.916555	-420.822916	-48.863329	381.187859	-431.750564	-14.957144	402.477593	-355.883151	-120.323840	358.786975	-387.628878	155.656553	257.429854	-396.012174	44.863054	263.937100	-458.107265	-215.730304	913.754614	-268.543135	-43.667685	84.925335	-475.087238	-51.898332	80.115458	-77.514294	
503	2.5150	414.174151	1357.801571	-130.026827	426.256838	1378.449357	-400.419732	392.539329	1442.954397	-268.267803	375.579249	1286.664877	-271.156096	529.227839	1125.230378	-53.693369	700.871709	916.439900	-86.973724	526.329366	1129.122608	-487.310418	763.773979	1034.048627	-451.782106	-139.538423	1169.480541	-263.675283	13.405261	1175.864230	-406.126260	19.566760	1194.725311	-127.800732	58.108674	1121.854255	-372.096681	51.532497	1130.141354	-153.160680	-101.584065	1216.693449	-223.002435	-99.552523	1216.681609	-309.743634	-36.803887	1069.991810	-88.189999	-66.290516	1072.536218	-434.364297	63.605023	1009.167802	-72.465549	151.386296	992.418779	-64.612872	216.905716	933.594110	-66.848612	167.314317	1024.179363	-75.854812	349.006130	855.935224	-90.916890	340.476239	853.727708	-202.068429	293.040495	758.748293	-71.668126	293.946301	670.483950	-84.856895	253.600897	595.219672	-92.961536	325.034037	666.721779	-108.139446	227.463956	464.110470	-108.958652	238.346470	498.702477	-185.335824	160.489825	426.822325	-157.337062	455.610038	427.120039	-145.147569	355.345422	395.252836	-82.593826	18.019851	957.759728	-458.315976	91.277725	912.563144	-461.011762	118.903715	935.274264	-449.231021	132.608432	832.060419	-464.186339	213.499629	706.722889	-436.146753	206.015778	697.468766	-327.124341	125.214700	616.032056	-457.489223	91.559392	535.996824	-444.392063	20.622085	482.724230	-442.219492	117.224084	519.805456	-420.800686	-48.862475	381.061052	-431.736945	-15.006681	402.387042	-355.879964	-120.312990	358.671191	-387.630545	155.694340	257.345087	-396.008274	44.878207	263.828528	-458.116317	-215.728264	913.730407	-268.535636	-43.678112	84.907258	-475.086800	-51.881945	80.093862	-77.525865	
504	2.5200	414.190036	1357.780420	-130.046412	426.251170	1378.451507	-400.437497	392.550261	1442.937797	-268.266310	375.576281	1286.656266	-271.166968	529.238023	1125.235943	-53.697016	700.863165	916.430148	-86.979429	526.333194	1129.121304	-487.309956	763.673339	1034.073290	-451.709075	-139.518134	1169.460393	-263.684443	13.436430	1175.843569	-406.119997	19.561238	1194.737161	-127.804221	58.135883	1121.854131	-372.082137	51.528356	1130.161347	-153.159081	-101.573166	1216.679874	-223.024207	-99.532923	1216.659777	-309.749155	-36.779734	1069.974184	-88.185019	-66.267514	1072.505240	-434.380047	63.691751	1009.080351	-72.512040	151.431591	992.448581	-64.627465	216.936402	933.643352	-66.844699	167.305896	1024.323809	-75.829619	349.058302	856.045521	-90.914834	340.500417	853.797801	-202.039446	293.033965	758.870502	-71.695016	293.968603	670.564046	-84.853775	253.588848	595.329845	-92.951821	325.022255	666.855711	-108.084680	227.462804	464.233924	-108.972563	238.334388	498.800251	-185.353583	160.448102	426.959787	-157.310251	455.594252	427.183327	-145.154397	355.313813	395.306263	-82.599404	18.031528	957.704386	-458.319673	91.290926	912.501551	-460.996562	118.919880	935.222972	-449.237931	132.610769	831.966946	-464.185234	213.470401	706.648579	-436.132511	205.945263	697.398573	-327.137647	125.170037	615.952263	-457.486656	91.536851	535.928993	-444.389690	20.602243	482.640185	-442.221596	117.199990	519.704424	-420.775283	-48.848494	380.941337	-431.757273	-15.006999	402.313249	-355.877320	-120.306935	358.546020	-387.620633	155.724072	257.277749	-395.999944	44.908950	263.775526	-458.138651	-215.735398	913.736487	-268.550161	-43.676325	84.904476	-475.076284	-51.898165	80.096023	-77.511342	
